<svg width="394" height="70" viewBox="0 0 394 70" fill="none" xmlns="http://www.w3.org/2000/svg">
<path d="M22.691 50.7336C25.902 53.231 29.7552 54.6581 33.8938 54.8722H33.9652C34.2506 54.8722 34.6074 54.9436 34.8928 54.9436C41.4575 54.9436 47.2374 51.8039 50.8765 46.8804C50.8765 46.8804 50.8765 46.8804 50.9478 46.809C51.0906 46.5949 51.3046 46.3095 51.4473 46.0955C51.5187 46.0241 51.5187 45.9527 51.5901 45.8814C51.7328 45.6673 51.8041 45.5246 51.9468 45.3105C52.0182 45.2392 52.0182 45.1678 52.0895 45.0965C52.2323 44.8824 52.3036 44.6683 52.4463 44.4543C52.4463 44.4543 52.4463 44.4543 52.4463 44.3829C54.0875 41.6 54.9438 38.389 54.9438 34.964C54.9438 34.8926 54.9438 34.8212 54.9438 34.7499C54.9438 34.5358 54.9438 34.2504 54.9438 34.0363C54.9438 33.8223 54.9438 33.6796 54.8724 33.4655C54.8724 33.3941 54.8724 33.2514 54.8724 33.1801C54.8724 32.966 54.8011 32.6806 54.8011 32.4665C54.8011 32.3952 54.8011 32.3951 54.8011 32.3238C54.3016 28.756 52.8745 25.545 50.8051 22.8335L47.2373 26.4013L45.4535 28.1852C43.2414 24.8314 39.3882 22.5481 35.0355 22.5481C28.5421 22.5481 23.2618 27.4716 22.6196 33.8223H21.1925H15.1273C15.1273 34.2504 15.0559 34.6072 15.0559 35.0353C15.0559 35.6062 15.0559 36.177 15.1273 36.7479C15.1273 36.9619 15.1986 37.176 15.1986 37.4614C15.1986 37.6041 15.27 37.7468 15.27 37.9609C15.3413 38.2463 15.3413 38.4604 15.4127 38.7458C15.4127 38.8172 15.484 38.9599 15.484 39.1026C15.5554 39.4594 15.6267 39.8162 15.7695 40.1729C15.7695 40.2443 15.7695 40.2443 15.8408 40.3156L14.1283 42.0282L13.8429 42.3136C13.0579 40.0302 12.6298 37.6041 12.6298 35.1067C12.6298 25.7591 18.3383 17.7672 26.4015 14.3421V14.6989V17.0537C21.2639 19.5511 17.3393 24.1179 15.7695 29.755C15.7695 29.755 15.7695 29.755 15.7695 29.8263C15.6981 30.1118 15.6267 30.3258 15.5554 30.6113C15.5554 30.6826 15.5554 30.754 15.484 30.754C15.4127 30.8967 15.4127 31.1107 15.4127 31.3248H20.5503C21.9061 26.0445 26.116 21.9059 31.325 20.5501V19.2657V9.27588V7.70605C17.8388 9.5613 7.49219 21.1209 7.49219 34.964C7.49219 40.6011 9.20473 45.9527 12.3444 50.5195L13.4861 49.3778L20.4789 42.385L21.4066 41.4573C20.9784 40.6011 20.6216 39.6734 20.4076 38.7458H22.9764C24.5462 43.8121 29.3271 47.4512 34.8928 47.4512C37.8184 47.4512 40.5299 46.4522 42.7419 44.6683L39.1741 41.1006C37.8897 41.9568 36.4626 42.4563 34.8928 42.4563C30.7542 42.4563 27.4004 39.1026 27.4004 34.964C27.4004 30.8253 30.8255 27.4716 34.9642 27.4716C39.1028 27.4716 42.4565 30.8253 42.4565 34.964C42.4565 36.5338 41.957 38.0323 41.1008 39.3167C41.1008 39.3167 41.1008 39.3167 41.1008 39.388L44.6685 42.9558C44.6685 42.9558 44.6685 42.9558 44.7399 42.8844C46.5238 40.6724 47.5228 37.8895 47.5228 34.964C47.5228 34.3931 47.4514 33.7509 47.3801 33.1801L49.5207 31.0394C49.8775 32.2524 50.0202 33.5368 50.0202 34.8926C50.0202 43.1699 43.3128 49.8773 35.0355 49.8773C31.0396 49.8773 27.2577 48.3075 24.4749 45.4533L22.691 43.6694L18.6237 47.808L17.6961 48.7356L17.4106 49.021L13.8429 52.5888L13.7715 52.6602L15.5554 54.4441C20.1222 59.0108 26.0447 61.7937 32.4667 62.3646V57.2983C28.2567 56.7988 24.2608 55.229 20.9784 52.5175L21.2639 52.2321L22.691 50.7336Z" fill="#F9C56C"/>
<path d="M34.9643 0C15.6983 0 0 15.6983 0 34.9643C0 53.3741 14.3425 68.5729 32.4669 69.8573V64.8624C17.1254 63.578 4.9949 50.6626 4.9949 34.9643C4.9949 18.4098 18.4098 4.9949 34.9643 4.9949C50.734 4.9949 63.6493 17.1967 64.8624 32.6096H64.5056H62.3649C62.3649 32.4669 62.3649 32.3242 62.3649 32.1814C62.3649 31.9674 62.2936 31.7533 62.2936 31.5392C62.2936 31.3252 62.2222 31.0398 62.2222 30.8257C62.2222 30.6116 62.1509 30.4689 62.1509 30.2548C62.0795 29.9694 62.0795 29.7554 62.0082 29.4699C62.0082 29.3272 61.9368 29.1845 61.9368 29.0418C61.8655 28.7564 61.7941 28.4709 61.7227 28.1855C61.7227 28.0428 61.6514 27.9715 61.6514 27.8287C61.58 27.472 61.4373 27.1865 61.366 26.8298C61.366 26.7584 61.2946 26.6871 61.2946 26.6157C61.1519 26.2589 61.0805 25.9021 60.9378 25.5454C60.9378 25.5454 60.9378 25.474 60.8665 25.474C58.369 18.7666 53.3741 13.3435 47.0235 10.2752C47.0235 10.2752 46.9521 10.2752 46.9521 10.2039C46.6667 10.0612 46.3099 9.91845 46.0245 9.77574C45.8818 9.70438 45.8104 9.70438 45.6677 9.63303C45.4536 9.56167 45.2396 9.49032 45.0255 9.3476C44.8114 9.27625 44.5974 9.20489 44.3833 9.13354C44.3119 9.06218 44.1692 9.06218 44.0979 9.06218C41.6718 8.20591 39.1743 7.70642 36.5342 7.56371H35.9633C35.6779 7.56371 35.3925 7.56371 35.1784 7.56371C34.7503 7.56371 34.3221 7.56371 33.9653 7.56371V12.5586V12.9154V15.0561V20.051C34.3935 20.051 34.8216 19.9796 35.1784 19.9796V19.9083L36.2487 19.9796C39.9592 20.265 43.2416 21.9062 45.739 24.3323L49.3068 20.7645C46.524 17.9817 42.9562 15.9837 38.9602 15.2701V13.1295V12.7727C49.6636 14.5566 57.6555 23.8328 57.6555 34.9643C57.6555 40.7441 55.5148 45.9531 51.947 49.949L55.5148 53.5168C59.4394 49.2355 61.9368 43.7411 62.5076 37.6758H65.0051C63.578 51.0907 53.3028 62.2936 39.9592 64.5056V61.9368C45.1682 61.0092 49.8063 58.5831 53.5168 55.2294L49.949 51.6616C46.524 54.7299 42.0999 56.7992 37.1764 57.2987L34.9643 57.5841V69.9286H33.9653C34.3221 69.9286 34.6075 69.9286 34.9643 69.9286V70L37.6758 69.7859C55.7289 68.4302 69.9286 53.16 69.9286 34.9643C69.9286 15.6983 54.2304 0 34.9643 0Z" fill="#F9C56C"/>
<path d="M29.9697 34.9646C29.9697 37.7475 32.1818 39.9595 34.9646 39.9595C35.8923 39.9595 36.7485 39.7455 37.5334 39.246C37.8902 39.0319 38.247 38.8178 38.5324 38.4611C38.8178 38.1756 39.1033 37.8189 39.3173 37.4621C39.7455 36.6772 40.0309 35.8209 40.0309 34.9646C40.0309 32.1818 37.8189 29.9697 35.036 29.9697C32.2531 29.9697 29.9697 32.1818 29.9697 34.9646ZM37.4621 34.9646C37.4621 35.3928 37.3194 35.8209 37.1053 36.249C37.0339 36.4631 36.8912 36.6058 36.7485 36.7485C36.6058 36.8912 36.4631 37.0339 36.249 37.1053C35.8923 37.3194 35.4641 37.4621 34.9646 37.4621C33.6089 37.4621 32.4672 36.3204 32.4672 34.9646C32.4672 33.6089 33.6089 32.4672 34.9646 32.4672C36.3204 32.4672 37.4621 33.6089 37.4621 34.9646Z" fill="#F9C56C"/>
<path d="M98.3915 52.675C98.4582 51.7583 98.5082 50.5 98.5415 48.9C98.5748 47.3 98.5998 45.5083 98.6165 43.525C98.6498 41.525 98.6665 39.4583 98.6665 37.325C98.6665 35.175 98.6498 33.0583 98.6165 30.975C98.5998 28.8917 98.5748 26.9667 98.5415 25.2C98.5082 23.4167 98.4582 21.9333 98.3915 20.75C98.6748 20.7167 99.1082 20.675 99.6915 20.625C100.292 20.575 100.892 20.55 101.492 20.55C101.892 20.55 102.325 20.5667 102.792 20.6C103.275 20.6333 103.608 20.6667 103.792 20.7C103.842 21.8833 103.883 23.3083 103.917 24.975C103.95 26.625 103.967 28.4083 103.967 30.325C103.983 32.225 103.975 34.1583 103.942 36.125C103.908 38.0917 103.875 39.9833 103.842 41.8C103.825 43.05 103.8 44.1917 103.767 45.225C103.733 46.2417 103.692 47.0583 103.642 47.675C104.792 47.6083 106.092 47.5417 107.542 47.475C109.008 47.4083 110.517 47.35 112.067 47.3C113.617 47.25 115.117 47.225 116.567 47.225C116.583 47.5417 116.6 47.9917 116.617 48.575C116.633 49.1583 116.642 49.7667 116.642 50.4C116.642 51.0333 116.633 51.5917 116.617 52.075C114.75 52.2583 112.958 52.4083 111.242 52.525C109.542 52.625 107.925 52.6917 106.392 52.725C104.975 52.775 103.6 52.7917 102.267 52.775C100.95 52.7583 99.6582 52.725 98.3915 52.675ZM131.94 53.525C129.857 53.525 127.965 53.25 126.265 52.7C124.582 52.1333 123.24 51.2333 122.24 50C121.24 48.75 120.74 47.0917 120.74 45.025C120.74 43.0417 121.298 41.4 122.415 40.1C123.532 38.8 125.04 37.8417 126.94 37.225C128.857 36.5917 130.998 36.275 133.365 36.275C134.465 36.275 135.54 36.3583 136.59 36.525C137.64 36.675 138.548 36.8583 139.315 37.075C140.082 37.275 140.598 37.4333 140.865 37.55C140.815 37 140.715 36.4417 140.565 35.875C140.432 35.2917 140.223 34.7833 139.94 34.35C139.307 33.2333 138.382 32.3167 137.165 31.6C135.965 30.8667 134.457 30.5 132.64 30.5C130.723 30.5 129.098 30.9167 127.765 31.75C126.432 32.5667 125.432 33.5417 124.765 34.675L120.715 32C121.448 30.9167 122.415 29.9583 123.615 29.125C124.815 28.2917 126.198 27.6333 127.765 27.15C129.332 26.6667 131.015 26.425 132.815 26.425C135.615 26.425 137.932 26.9583 139.765 28.025C141.598 29.0917 142.94 30.5 143.79 32.25C144.223 33.1333 144.565 34.1 144.815 35.15C145.065 36.2 145.215 37.5 145.265 39.05C145.298 40.6833 145.332 42.075 145.365 43.225C145.415 44.375 145.465 45.3667 145.515 46.2C145.598 47.2833 145.765 47.9833 146.015 48.3C146.265 48.6167 146.623 48.775 147.09 48.775C147.623 48.775 148.073 48.55 148.44 48.1C148.807 47.6333 149.015 46.9833 149.065 46.15L151.465 48.8C151.365 50.2 150.873 51.2667 149.99 52C149.107 52.7333 148.073 53.1 146.89 53.1C145.957 53.1 145.132 52.925 144.415 52.575C143.715 52.2083 143.157 51.7417 142.74 51.175C142.323 50.6083 142.082 50.025 142.015 49.425C141.682 50.0417 141.032 50.6667 140.065 51.3C139.115 51.9333 137.94 52.4667 136.54 52.9C135.157 53.3167 133.623 53.525 131.94 53.525ZM132.84 49.6C133.923 49.6 134.982 49.4333 136.015 49.1C137.048 48.7667 137.998 48.325 138.865 47.775C139.748 47.225 140.473 46.6167 141.04 45.95C141.023 44.9167 141.023 44 141.04 43.2C141.057 42.3833 141.082 41.6333 141.115 40.95C140.632 40.7833 139.707 40.5667 138.34 40.3C136.973 40.0167 135.432 39.875 133.715 39.875C132.232 39.875 130.882 40.075 129.665 40.475C128.465 40.8583 127.507 41.4167 126.79 42.15C126.09 42.8833 125.74 43.7667 125.74 44.8C125.74 46.05 126.04 47.025 126.64 47.725C127.257 48.4083 128.098 48.8917 129.165 49.175C130.232 49.4583 131.457 49.6 132.84 49.6ZM155.313 53.35C155.263 52.7667 155.213 51.7833 155.163 50.4C155.113 49 155.055 47.3417 154.988 45.425C154.921 43.5083 154.846 41.45 154.763 39.25C154.696 37.05 154.63 34.8417 154.563 32.625C154.513 30.3917 154.463 28.2833 154.413 26.3C154.363 24.3 154.321 22.5417 154.288 21.025C154.271 19.5083 154.263 18.375 154.263 17.625C154.496 17.5917 155.063 17.5083 155.963 17.375C156.88 17.225 157.896 17.075 159.013 16.925C159.013 18.1417 159.03 19.6917 159.063 21.575C159.113 23.4583 159.18 25.4917 159.263 27.675C159.346 29.8417 159.438 31.95 159.538 34C159.788 33.75 160.171 33.4083 160.688 32.975C161.205 32.525 161.838 32.075 162.588 31.625C163.338 31.1583 164.171 30.7667 165.088 30.45C166.005 30.1333 166.971 29.975 167.988 29.975C170.038 29.975 171.78 30.4833 173.213 31.5C174.663 32.5167 175.763 33.9333 176.513 35.75C177.263 37.5667 177.638 39.6917 177.638 42.125C177.638 45.475 176.763 48.1083 175.013 50.025C173.263 51.9417 170.805 52.9 167.638 52.9C166.355 52.9 165.23 52.7417 164.263 52.425C163.296 52.0917 162.488 51.7083 161.838 51.275C161.205 50.8417 160.73 50.475 160.413 50.175C160.43 50.4917 160.446 50.875 160.463 51.325C160.496 51.7583 160.521 52.175 160.538 52.575C160.555 52.975 160.563 53.275 160.563 53.475C159.746 53.4917 158.83 53.4917 157.813 53.475C156.813 53.4583 155.98 53.4167 155.313 53.35ZM160.263 46.025C160.53 46.275 160.963 46.5917 161.563 46.975C162.163 47.3417 162.905 47.675 163.788 47.975C164.671 48.275 165.655 48.425 166.738 48.425C168.921 48.425 170.513 47.85 171.513 46.7C172.53 45.5333 173.038 43.95 173.038 41.95C173.038 40.55 172.83 39.2583 172.413 38.075C171.996 36.8917 171.355 35.9417 170.488 35.225C169.621 34.5083 168.513 34.15 167.163 34.15C165.946 34.15 164.863 34.4 163.913 34.9C162.98 35.4 162.171 35.9917 161.488 36.675C160.805 37.3417 160.238 37.9583 159.788 38.525C159.805 38.7083 159.83 39.05 159.863 39.55C159.896 40.05 159.93 40.6333 159.963 41.3C160.013 41.9667 160.055 42.6333 160.088 43.3C160.138 43.9667 160.171 44.55 160.188 45.05C160.221 45.5333 160.246 45.8583 160.263 46.025ZM190.393 53.025C190.16 53.0417 189.793 53.0667 189.293 53.1C188.793 53.1333 188.285 53.15 187.768 53.15C187.302 53.15 186.852 53.1333 186.418 53.1C185.985 53.0667 185.577 53.025 185.193 52.975C185.26 52.5417 185.343 51.65 185.443 50.3C185.543 48.9333 185.643 47.3167 185.743 45.45C185.843 43.5833 185.935 41.6583 186.018 39.675C186.102 37.6917 186.168 35.8417 186.218 34.125C186.268 32.3917 186.293 31.0167 186.293 30C186.477 29.9833 186.768 29.9667 187.168 29.95C187.585 29.9333 188.035 29.9167 188.518 29.9C189.002 29.8667 189.46 29.8417 189.893 29.825C190.327 29.8083 190.652 29.8 190.868 29.8C190.935 30.25 190.977 30.9417 190.993 31.875C191.027 32.7917 191.043 33.8333 191.043 35C191.043 36.55 191.027 38.2417 190.993 40.075C190.977 41.9083 190.935 43.7083 190.868 45.475C190.802 47.2417 190.727 48.8 190.643 50.15C190.577 51.5 190.493 52.4583 190.393 53.025ZM188.868 25.9C187.735 25.9 186.835 25.5583 186.168 24.875C185.502 24.1917 185.168 23.3333 185.168 22.3C185.168 21.5167 185.335 20.8667 185.668 20.35C186.002 19.8167 186.435 19.4167 186.968 19.15C187.518 18.8667 188.11 18.725 188.743 18.725C189.76 18.725 190.577 19.0833 191.193 19.8C191.827 20.5167 192.143 21.4083 192.143 22.475C192.143 23.4083 191.843 24.2167 191.243 24.9C190.66 25.5667 189.868 25.9 188.868 25.9ZM203.864 30.85C204.364 30 205.089 29.225 206.039 28.525C207.005 27.825 208.089 27.2667 209.289 26.85C210.505 26.4333 211.722 26.225 212.939 26.225C213.722 26.225 214.514 26.3 215.314 26.45C216.114 26.5833 216.739 26.775 217.189 27.025L216.189 32.05C215.789 31.8833 215.272 31.7083 214.639 31.525C214.022 31.325 213.255 31.225 212.339 31.225C211.355 31.225 210.372 31.4083 209.389 31.775C208.422 32.125 207.53 32.6083 206.714 33.225C205.897 33.8417 205.214 34.55 204.664 35.35C204.897 36.5167 205.122 37.9417 205.339 39.625C205.572 41.3083 205.78 43.0333 205.964 44.8C206.147 46.5667 206.297 48.1833 206.414 49.65C206.53 51.1 206.589 52.1917 206.589 52.925C205.872 52.9917 204.997 53.0333 203.964 53.05C202.93 53.0667 201.98 53.0667 201.114 53.05C201.114 51.5 201.08 49.8667 201.014 48.15C200.947 46.4167 200.839 44.65 200.689 42.85C200.555 41.0333 200.38 39.225 200.164 37.425C199.947 35.625 199.689 33.8833 199.389 32.2C199.105 30.5 198.78 28.8917 198.414 27.375C198.864 27.2417 199.389 27.1083 199.989 26.975C200.605 26.8417 201.172 26.725 201.689 26.625C202.205 26.525 202.555 26.4667 202.739 26.45C202.955 27.0167 203.18 27.75 203.414 28.65C203.647 29.55 203.797 30.2833 203.864 30.85ZM228.186 53.025C227.953 53.0417 227.586 53.0667 227.086 53.1C226.586 53.1333 226.078 53.15 225.561 53.15C225.095 53.15 224.645 53.1333 224.211 53.1C223.778 53.0667 223.37 53.025 222.986 52.975C223.053 52.5417 223.136 51.65 223.236 50.3C223.336 48.9333 223.436 47.3167 223.536 45.45C223.636 43.5833 223.728 41.6583 223.811 39.675C223.895 37.6917 223.961 35.8417 224.011 34.125C224.061 32.3917 224.086 31.0167 224.086 30C224.27 29.9833 224.561 29.9667 224.961 29.95C225.378 29.9333 225.828 29.9167 226.311 29.9C226.795 29.8667 227.253 29.8417 227.686 29.825C228.12 29.8083 228.445 29.8 228.661 29.8C228.728 30.25 228.77 30.9417 228.786 31.875C228.82 32.7917 228.836 33.8333 228.836 35C228.836 36.55 228.82 38.2417 228.786 40.075C228.77 41.9083 228.728 43.7083 228.661 45.475C228.595 47.2417 228.52 48.8 228.436 50.15C228.37 51.5 228.286 52.4583 228.186 53.025ZM226.661 25.9C225.528 25.9 224.628 25.5583 223.961 24.875C223.295 24.1917 222.961 23.3333 222.961 22.3C222.961 21.5167 223.128 20.8667 223.461 20.35C223.795 19.8167 224.228 19.4167 224.761 19.15C225.311 18.8667 225.903 18.725 226.536 18.725C227.553 18.725 228.37 19.0833 228.986 19.8C229.62 20.5167 229.936 21.4083 229.936 22.475C229.936 23.4083 229.636 24.2167 229.036 24.9C228.453 25.5667 227.661 25.9 226.661 25.9ZM242.882 53.325C242.565 53.325 242.182 53.325 241.732 53.325C241.282 53.3417 240.832 53.3417 240.382 53.325C239.965 53.3083 239.49 53.2833 238.957 53.25C238.423 53.2333 238.032 53.2083 237.782 53.175C237.948 51.7917 238.09 50.2833 238.207 48.65C238.34 47 238.448 45.15 238.532 43.1C238.615 41.0333 238.682 38.6917 238.732 36.075C238.782 33.4417 238.807 30.45 238.807 27.1C239.207 27.0333 239.682 26.9833 240.232 26.95C240.798 26.9 241.373 26.875 241.957 26.875C242.323 26.875 242.69 26.8833 243.057 26.9C243.44 26.9167 243.773 26.95 244.057 27C244.073 27.1833 244.082 27.5167 244.082 28C244.098 28.4833 244.098 29.0167 244.082 29.6C244.082 30.1833 244.082 30.7 244.082 31.15C244.698 30.4667 245.573 29.7667 246.707 29.05C247.84 28.3333 249.107 27.7333 250.507 27.25C251.907 26.75 253.315 26.5 254.732 26.5C257.265 26.5 259.19 27.0083 260.507 28.025C261.823 29.025 262.715 30.5083 263.182 32.475C263.665 34.4417 263.907 36.8833 263.907 39.8C263.907 40.9333 263.873 42.2167 263.807 43.65C263.757 45.0833 263.665 46.6 263.532 48.2C263.415 49.8 263.257 51.425 263.057 53.075C262.823 53.1083 262.465 53.1333 261.982 53.15C261.515 53.1833 261.015 53.2 260.482 53.2C259.948 53.2 259.44 53.1917 258.957 53.175C258.473 53.1583 258.09 53.125 257.807 53.075C258.023 51.6583 258.223 50.1833 258.407 48.65C258.59 47.1 258.74 45.5667 258.857 44.05C258.973 42.5167 259.032 41.075 259.032 39.725C259.032 37.9917 258.898 36.475 258.632 35.175C258.382 33.875 257.873 32.8667 257.107 32.15C256.357 31.4333 255.248 31.075 253.782 31.075C252.265 31.075 250.873 31.325 249.607 31.825C248.34 32.325 247.232 32.9167 246.282 33.6C245.348 34.2833 244.59 34.8917 244.007 35.425C243.94 38.2417 243.84 40.825 243.707 43.175C243.573 45.525 243.432 47.5667 243.282 49.3C243.132 51.0333 242.998 52.375 242.882 53.325ZM287.31 48.35C287.06 49.15 286.677 49.9917 286.16 50.875C285.644 51.7417 284.927 52.475 284.01 53.075C283.094 53.6917 281.91 54 280.46 54C278.594 54 277.11 53.5917 276.01 52.775C274.927 51.9583 274.152 50.8833 273.685 49.55C273.219 48.2167 272.985 46.7667 272.985 45.2C272.985 44.3833 272.994 43.4167 273.01 42.3C273.044 41.1833 273.077 40.025 273.11 38.825C273.144 37.625 273.177 36.4667 273.21 35.35C273.26 34.2167 273.302 33.225 273.335 32.375C273.369 31.5083 273.394 30.8667 273.41 30.45C271.777 30.6167 270.36 30.8 269.16 31C267.977 31.1833 267.219 31.325 266.885 31.425C266.785 30.8917 266.702 30.3333 266.635 29.75C266.585 29.15 266.544 28.6083 266.51 28.125C266.494 27.6417 266.485 27.3167 266.485 27.15C267.419 27.0167 268.502 26.875 269.735 26.725C270.985 26.575 272.219 26.4583 273.435 26.375C273.452 25.725 273.46 24.925 273.46 23.975C273.46 23.0083 273.46 22.1 273.46 21.25C273.444 20.5333 273.41 19.8417 273.36 19.175C273.31 18.4917 273.269 17.925 273.235 17.475L277.935 17.2C277.969 17.45 278.002 18.05 278.035 19C278.085 19.9333 278.11 21.0667 278.11 22.4C278.11 22.9 278.11 23.5083 278.11 24.225C278.11 24.925 278.11 25.55 278.11 26.1C278.61 26.0667 279.227 26.0333 279.96 26C280.694 25.9667 281.285 25.95 281.735 25.95C282.519 25.9333 283.269 25.925 283.985 25.925C284.702 25.925 285.319 25.9333 285.835 25.95C286.352 25.9667 286.669 25.9833 286.785 26C286.869 26.45 286.919 27.075 286.935 27.875C286.969 28.675 286.985 29.3417 286.985 29.875C286.819 29.8583 286.244 29.85 285.26 29.85C284.294 29.8333 283.335 29.8333 282.385 29.85C281.702 29.8667 280.952 29.9 280.135 29.95C279.319 29.9833 278.619 30.0167 278.035 30.05C278.019 30.4833 277.985 31.125 277.935 31.975C277.902 32.825 277.869 33.7833 277.835 34.85C277.802 35.9 277.769 36.975 277.735 38.075C277.702 39.1583 277.677 40.175 277.66 41.125C277.644 42.0583 277.635 42.8167 277.635 43.4C277.635 44.45 277.694 45.45 277.81 46.4C277.944 47.35 278.244 48.1333 278.71 48.75C279.194 49.35 279.952 49.65 280.985 49.65C281.685 49.65 282.252 49.4 282.685 48.9C283.119 48.4 283.452 47.825 283.685 47.175C283.935 46.525 284.119 45.9833 284.235 45.55C284.385 45.7167 284.602 45.9417 284.885 46.225C285.185 46.4917 285.502 46.775 285.835 47.075C286.185 47.375 286.494 47.6417 286.76 47.875C287.044 48.1083 287.227 48.2667 287.31 48.35ZM310.731 54.025C307.931 54.025 305.331 53.675 302.931 52.975C300.548 52.2583 298.465 51.2083 296.681 49.825C294.915 48.425 293.531 46.6917 292.531 44.625C291.548 42.5583 291.056 40.1583 291.056 37.425C291.056 34.1417 291.648 31.1583 292.831 28.475C294.031 25.7917 295.698 23.4917 297.831 21.575C299.965 19.6583 302.456 18.1833 305.306 17.15C308.156 16.1 311.223 15.575 314.506 15.575C318.39 15.575 321.806 16.3333 324.756 17.85C327.723 19.35 330.04 21.4917 331.706 24.275C333.39 27.0583 334.231 30.3667 334.231 34.2C334.231 36 333.94 37.65 333.356 39.15C332.773 40.6333 331.89 41.825 330.706 42.725C329.523 43.625 328.04 44.075 326.256 44.075C324.74 44.075 323.406 43.7 322.256 42.95C321.106 42.1833 320.348 41.0917 319.981 39.675C319.665 40.6083 319.073 41.4083 318.206 42.075C317.356 42.7417 316.348 43.2583 315.181 43.625C314.015 43.975 312.773 44.15 311.456 44.15C308.756 44.15 306.623 43.375 305.056 41.825C303.49 40.275 302.706 38.2083 302.706 35.625C302.706 33.825 303.115 32.1833 303.931 30.7C304.765 29.2 305.89 28 307.306 27.1C308.723 26.2 310.306 25.75 312.056 25.75C313.34 25.75 314.398 25.9 315.231 26.2C316.065 26.5 316.723 26.8583 317.206 27.275C317.156 26.9417 317.106 26.575 317.056 26.175C317.006 25.7583 316.973 25.425 316.956 25.175C317.223 25.1583 317.581 25.1417 318.031 25.125C318.481 25.0917 318.94 25.0667 319.406 25.05C319.873 25.0167 320.231 25 320.481 25C320.715 26.25 320.965 27.5583 321.231 28.925C321.515 30.275 321.773 31.5667 322.006 32.8C322.256 34.0167 322.473 35.05 322.656 35.9C322.84 36.7333 322.965 37.2583 323.031 37.475C323.281 38.525 323.631 39.275 324.081 39.725C324.548 40.1583 325.248 40.375 326.181 40.375C327.115 40.375 327.865 40.05 328.431 39.4C328.998 38.7333 329.415 37.9083 329.681 36.925C329.948 35.925 330.081 34.9083 330.081 33.875C330.081 30.8083 329.431 28.2 328.131 26.05C326.831 23.9 325.006 22.2667 322.656 21.15C320.323 20.0167 317.581 19.45 314.431 19.45C311.831 19.45 309.39 19.8833 307.106 20.75C304.84 21.6 302.84 22.8167 301.106 24.4C299.373 25.9833 298.015 27.8583 297.031 30.025C296.065 32.1917 295.581 34.5917 295.581 37.225C295.581 39.2417 295.94 41.0583 296.656 42.675C297.39 44.275 298.423 45.6417 299.756 46.775C301.106 47.9083 302.731 48.775 304.631 49.375C306.531 49.975 308.656 50.275 311.006 50.275C313.023 50.275 314.756 50.0667 316.206 49.65C317.673 49.2333 318.873 48.6917 319.806 48.025C320.756 47.3583 321.481 46.6417 321.981 45.875L325.206 48.55C324.606 49.5667 323.648 50.4917 322.331 51.325C321.031 52.1417 319.406 52.7917 317.456 53.275C315.506 53.775 313.265 54.025 310.731 54.025ZM311.931 40.275C313.665 40.275 315.09 39.8917 316.206 39.125C317.323 38.3417 318.148 37.3333 318.681 36.1L317.531 30.725C317.015 30.3083 316.356 29.9917 315.556 29.775C314.756 29.5417 313.915 29.425 313.031 29.425C311.215 29.425 309.773 29.9833 308.706 31.1C307.656 32.2167 307.131 33.65 307.131 35.4C307.131 37.0167 307.606 38.2333 308.556 39.05C309.523 39.8667 310.648 40.275 311.931 40.275Z" fill="#F9C56C"/>
</svg>
