<svg width="70" height="70" viewBox="0 0 70 70" fill="none" xmlns="http://www.w3.org/2000/svg">
<path d="M22.691 50.7336C25.902 53.231 29.7552 54.6581 33.8938 54.8722H33.9652C34.2506 54.8722 34.6074 54.9436 34.8928 54.9436C41.4575 54.9436 47.2374 51.8039 50.8765 46.8804C50.8765 46.8804 50.8765 46.8804 50.9478 46.809C51.0906 46.5949 51.3046 46.3095 51.4473 46.0955C51.5187 46.0241 51.5187 45.9527 51.5901 45.8814C51.7328 45.6673 51.8041 45.5246 51.9468 45.3105C52.0182 45.2392 52.0182 45.1678 52.0895 45.0965C52.2323 44.8824 52.3036 44.6683 52.4463 44.4543C52.4463 44.4543 52.4463 44.4543 52.4463 44.3829C54.0875 41.6 54.9438 38.389 54.9438 34.964C54.9438 34.8926 54.9438 34.8212 54.9438 34.7499C54.9438 34.5358 54.9438 34.2504 54.9438 34.0363C54.9438 33.8223 54.9438 33.6796 54.8724 33.4655C54.8724 33.3941 54.8724 33.2514 54.8724 33.1801C54.8724 32.966 54.8011 32.6806 54.8011 32.4665C54.8011 32.3952 54.8011 32.3951 54.8011 32.3238C54.3016 28.756 52.8745 25.545 50.8051 22.8335L47.2373 26.4013L45.4535 28.1852C43.2414 24.8314 39.3882 22.5481 35.0355 22.5481C28.5421 22.5481 23.2618 27.4716 22.6196 33.8223H21.1925H15.1273C15.1273 34.2504 15.0559 34.6072 15.0559 35.0353C15.0559 35.6062 15.0559 36.177 15.1273 36.7479C15.1273 36.9619 15.1986 37.176 15.1986 37.4614C15.1986 37.6041 15.27 37.7468 15.27 37.9609C15.3413 38.2463 15.3413 38.4604 15.4127 38.7458C15.4127 38.8172 15.484 38.9599 15.484 39.1026C15.5554 39.4594 15.6267 39.8162 15.7695 40.1729C15.7695 40.2443 15.7695 40.2443 15.8408 40.3156L14.1283 42.0282L13.8429 42.3136C13.0579 40.0302 12.6298 37.6041 12.6298 35.1067C12.6298 25.7591 18.3383 17.7672 26.4015 14.3421V14.6989V17.0537C21.2639 19.5511 17.3393 24.1179 15.7695 29.755C15.7695 29.755 15.7695 29.755 15.7695 29.8263C15.6981 30.1118 15.6267 30.3258 15.5554 30.6113C15.5554 30.6826 15.5554 30.754 15.484 30.754C15.4127 30.8967 15.4127 31.1107 15.4127 31.3248H20.5503C21.9061 26.0445 26.116 21.9059 31.325 20.5501V19.2657V9.27588V7.70605C17.8388 9.5613 7.49219 21.1209 7.49219 34.964C7.49219 40.6011 9.20473 45.9527 12.3444 50.5195L13.4861 49.3778L20.4789 42.385L21.4066 41.4573C20.9784 40.6011 20.6216 39.6734 20.4076 38.7458H22.9764C24.5462 43.8121 29.3271 47.4512 34.8928 47.4512C37.8184 47.4512 40.5299 46.4522 42.7419 44.6683L39.1741 41.1006C37.8897 41.9568 36.4626 42.4563 34.8928 42.4563C30.7542 42.4563 27.4004 39.1026 27.4004 34.964C27.4004 30.8253 30.8255 27.4716 34.9642 27.4716C39.1028 27.4716 42.4565 30.8253 42.4565 34.964C42.4565 36.5338 41.957 38.0323 41.1008 39.3167C41.1008 39.3167 41.1008 39.3167 41.1008 39.388L44.6685 42.9558C44.6685 42.9558 44.6685 42.9558 44.7399 42.8844C46.5238 40.6724 47.5228 37.8895 47.5228 34.964C47.5228 34.3931 47.4514 33.7509 47.3801 33.1801L49.5207 31.0394C49.8775 32.2524 50.0202 33.5368 50.0202 34.8926C50.0202 43.1699 43.3128 49.8773 35.0355 49.8773C31.0396 49.8773 27.2577 48.3075 24.4749 45.4533L22.691 43.6694L18.6237 47.808L17.6961 48.7356L17.4106 49.021L13.8429 52.5888L13.7715 52.6602L15.5554 54.4441C20.1222 59.0108 26.0447 61.7937 32.4667 62.3646V57.2983C28.2567 56.7988 24.2608 55.229 20.9784 52.5175L21.2639 52.2321L22.691 50.7336Z" fill="#F9C56C"/>
<path d="M34.9643 0C15.6983 0 0 15.6983 0 34.9643C0 53.3741 14.3425 68.5729 32.4669 69.8573V64.8624C17.1254 63.578 4.9949 50.6626 4.9949 34.9643C4.9949 18.4098 18.4098 4.9949 34.9643 4.9949C50.734 4.9949 63.6493 17.1967 64.8624 32.6096H64.5056H62.3649C62.3649 32.4669 62.3649 32.3242 62.3649 32.1814C62.3649 31.9674 62.2936 31.7533 62.2936 31.5392C62.2936 31.3252 62.2222 31.0398 62.2222 30.8257C62.2222 30.6116 62.1509 30.4689 62.1509 30.2548C62.0795 29.9694 62.0795 29.7554 62.0082 29.4699C62.0082 29.3272 61.9368 29.1845 61.9368 29.0418C61.8655 28.7564 61.7941 28.4709 61.7227 28.1855C61.7227 28.0428 61.6514 27.9715 61.6514 27.8287C61.58 27.472 61.4373 27.1865 61.366 26.8298C61.366 26.7584 61.2946 26.6871 61.2946 26.6157C61.1519 26.2589 61.0805 25.9021 60.9378 25.5454C60.9378 25.5454 60.9378 25.474 60.8665 25.474C58.369 18.7666 53.3741 13.3435 47.0235 10.2752C47.0235 10.2752 46.9521 10.2752 46.9521 10.2039C46.6667 10.0612 46.3099 9.91845 46.0245 9.77574C45.8818 9.70438 45.8104 9.70438 45.6677 9.63303C45.4536 9.56167 45.2396 9.49032 45.0255 9.3476C44.8114 9.27625 44.5974 9.20489 44.3833 9.13354C44.3119 9.06218 44.1692 9.06218 44.0979 9.06218C41.6718 8.20591 39.1743 7.70642 36.5342 7.56371H35.9633C35.6779 7.56371 35.3925 7.56371 35.1784 7.56371C34.7503 7.56371 34.3221 7.56371 33.9653 7.56371V12.5586V12.9154V15.0561V20.051C34.3935 20.051 34.8216 19.9796 35.1784 19.9796V19.9083L36.2487 19.9796C39.9592 20.265 43.2416 21.9062 45.739 24.3323L49.3068 20.7645C46.524 17.9817 42.9562 15.9837 38.9602 15.2701V13.1295V12.7727C49.6636 14.5566 57.6555 23.8328 57.6555 34.9643C57.6555 40.7441 55.5148 45.9531 51.947 49.949L55.5148 53.5168C59.4394 49.2355 61.9368 43.7411 62.5076 37.6758H65.0051C63.578 51.0907 53.3028 62.2936 39.9592 64.5056V61.9368C45.1682 61.0092 49.8063 58.5831 53.5168 55.2294L49.949 51.6616C46.524 54.7299 42.0999 56.7992 37.1764 57.2987L34.9643 57.5841V69.9286H33.9653C34.3221 69.9286 34.6075 69.9286 34.9643 69.9286V70L37.6758 69.7859C55.7289 68.4302 69.9286 53.16 69.9286 34.9643C69.9286 15.6983 54.2304 0 34.9643 0Z" fill="#F9C56C"/>
<path d="M29.9697 34.9646C29.9697 37.7475 32.1818 39.9595 34.9646 39.9595C35.8923 39.9595 36.7485 39.7455 37.5334 39.246C37.8902 39.0319 38.247 38.8178 38.5324 38.4611C38.8178 38.1756 39.1033 37.8189 39.3173 37.4621C39.7455 36.6772 40.0309 35.8209 40.0309 34.9646C40.0309 32.1818 37.8189 29.9697 35.036 29.9697C32.2531 29.9697 29.9697 32.1818 29.9697 34.9646ZM37.4621 34.9646C37.4621 35.3928 37.3194 35.8209 37.1053 36.249C37.0339 36.4631 36.8912 36.6058 36.7485 36.7485C36.6058 36.8912 36.4631 37.0339 36.249 37.1053C35.8923 37.3194 35.4641 37.4621 34.9646 37.4621C33.6089 37.4621 32.4672 36.3204 32.4672 34.9646C32.4672 33.6089 33.6089 32.4672 34.9646 32.4672C36.3204 32.4672 37.4621 33.6089 37.4621 34.9646Z" fill="#F9C56C"/>
</svg>
